HIERARCHY
ROOT Hips
{
	OFFSET 0.000000 0.000000 0.000000 
	CHANNELS 6 Xposition Yposition Zposition Zrotation Yrotation Xrotation
	JOINT LeftUpLeg
	{
		OFFSET 1.363060 -1.794630 0.839290 
		CHANNELS 3 Zrotation Yrotation Xrotation
		JOINT LeftLeg
		{
			OFFSET 2.448110 -6.726130 0.000000 
			CHANNELS 3 Zrotation Yrotation Xrotation
			JOINT LeftFoot
			{
				OFFSET 2.562200 -7.039590 0.000000 
				CHANNELS 3 Zrotation Yrotation Xrotation
				JOINT LeftToeBase
				{
					OFFSET 0.157640 -0.433110 2.322550 
					CHANNELS 3 Zrotation Yrotation Xrotation
					End Site
					{
						OFFSET 0.000000 0.000000 0.000000 
					}
				}
			}
		}
	}
	JOINT RightUpLeg
	{
		OFFSET -1.305520 -1.794630 0.839290 
		CHANNELS 3 Zrotation Yrotation Xrotation
		JOINT RightLeg
		{
			OFFSET -2.542530 -6.985550 0.000000 
			CHANNELS 3 Zrotation Yrotation Xrotation
			JOINT RightFoot
			{
				OFFSET -2.568260 -7.056230 0.000000 
				CHANNELS 3 Zrotation Yrotation Xrotation
				JOINT RightToeBase
				{
					OFFSET -0.164730 -0.452590 2.363150 
					CHANNELS 3 Zrotation Yrotation Xrotation
					End Site
					{
						OFFSET 0.000000 0.000000 0.000000 
					}
				}
			}
		}
	}
	JOINT Spine
	{
		OFFSET 0.028270 2.035590 -0.193380 
		CHANNELS 3 Zrotation Yrotation Xrotation
		JOINT Spine1
		{
			OFFSET 0.056720 2.048850 -0.042750 
			CHANNELS 3 Zrotation Yrotation Xrotation
			JOINT Neck1
			{
				OFFSET -0.054170 1.746240 0.172020 
				CHANNELS 3 Zrotation Yrotation Xrotation
				JOINT Head
				{
					OFFSET 0.104070 1.761360 -0.123970 
					CHANNELS 3 Zrotation Yrotation Xrotation
					End Site
					{
						OFFSET 0.000000 0.000000 0.000000 
					}
				}
			}
			JOINT LeftArm
			{
				OFFSET 3.362410 1.200890 -0.311210 
				CHANNELS 3 Zrotation Yrotation Xrotation
				JOINT LeftForeArm
				{
					OFFSET 4.983000 -0.000000 -0.000000 
					CHANNELS 3 Zrotation Yrotation Xrotation
					JOINT LeftHand
					{
						OFFSET 3.483560 -0.000000 -0.000000 
						CHANNELS 3 Zrotation Yrotation Xrotation
						JOINT LeftHandIndex1
						{
							OFFSET 0.715260 -0.000000 -0.000000 
							CHANNELS 3 Zrotation Yrotation Xrotation
							End Site
							{
								OFFSET 0.000000 0.000000 0.000000 
							}
						}
					}
				}
			}
			JOINT RightArm
			{
				OFFSET -3.136600 1.374050 -0.404650 
				CHANNELS 3 Zrotation Yrotation Xrotation
				JOINT RightForeArm
				{
					OFFSET -5.241900 -0.000000 -0.000000 
					CHANNELS 3 Zrotation Yrotation Xrotation
					JOINT RightHand
					{
						OFFSET -3.444170 -0.000000 -0.000000 
						CHANNELS 3 Zrotation Yrotation Xrotation
						JOINT RightHandIndex1
						{
							OFFSET -0.622530 -0.000000 -0.000000 
							CHANNELS 3 Zrotation Yrotation Xrotation
							End Site
							{
								OFFSET 0.000000 0.000000 0.000000 
							}
						}
					}
				}
			}
		}
	}
}
MOTION
Frames: 6
Frame Time: 0.041667
-30.912594 17.432068 1.401324 15.816297 88.963960 7.042121 -12.034953 4.437578 9.984922 -1.106713 4.965157 13.955975 -0.498687 6.827464 -12.186631 0.930300 -6.144300 -17.203600 19.064992 -11.923197 19.953212 -0.343690 -4.033976 6.012201 -0.474134 2.725127 -12.788840 -0.038900 -1.273700 3.502100 0.700105 1.440094 0.231576 -2.554281 0.291421 9.397157 5.126995 2.170685 12.324532 -0.701100 1.612600 12.688700 -93.387016 -9.607517 40.257625 10.433757 -19.506586 -2.053168 -0.432836 0.740028 7.225246 -7.125000 0.000000 0.000000 88.622028 5.665198 46.571233 -16.868712 31.835241 -4.279109 0.317701 -2.654277 3.022398 7.125000 0.000000 0.000000 
-30.918144 17.431862 1.406463 14.407077 88.973833 5.738471 -11.796180 4.668580 9.701495 -1.077411 5.001176 14.065442 -0.467518 6.576810 -12.032738 0.948200 -6.201500 -17.370300 19.138792 -12.009135 19.740226 -0.350407 -4.056864 6.061942 -0.476273 2.943479 -12.702795 -0.052500 -1.479200 4.068500 0.692012 1.432983 0.222678 -2.623640 0.298334 9.396153 5.236357 2.044501 12.369871 -0.620800 1.567400 12.657700 -93.297451 -9.625598 40.120437 10.328485 -19.347753 -2.015965 -0.470998 0.757229 7.656273 -7.125000 0.000000 0.000000 88.710788 5.663337 46.387699 -16.774044 31.760945 -4.251587 0.314183 -2.659821 3.364997 7.125000 0.000000 0.000000 
-30.921536 17.433198 1.411397 15.002100 88.992891 6.312524 -11.743435 4.811760 9.627699 -1.061009 5.023250 14.135768 -0.449239 6.430501 -11.934093 0.956400 -6.227500 -17.445800 19.106065 -12.040047 19.768355 -0.351587 -4.040836 6.015113 -0.478235 3.051009 -12.669214 -0.072800 -1.740900 4.790000 0.679093 1.432713 0.222867 -2.704430 0.306295 9.415384 5.232211 2.031852 12.540239 -0.641400 1.583800 12.807100 -93.231675 -9.707689 40.040983 10.172672 -19.113362 -1.964109 -0.443970 0.751950 7.928500 -7.125000 0.000000 0.000000 88.776920 5.642268 46.304692 -16.770242 31.771186 -4.258237 0.307481 -2.668415 3.476872 7.125000 0.000000 0.000000 
-30.923797 17.436898 1.415508 16.352143 88.961788 7.677842 -11.855232 4.748554 9.686975 -1.076798 4.990663 14.041382 -0.453614 6.475809 -11.980423 0.948800 -6.203400 -17.375900 19.035581 -12.011904 19.773115 -0.353542 -4.021950 5.964872 -0.475124 3.052942 -12.607273 -0.093800 -1.975100 5.437000 0.672100 1.429515 0.217905 -2.704331 0.301939 9.422615 5.218654 2.070329 12.691824 -0.645100 1.610000 12.923300 -93.249832 -9.773249 39.806639 10.015176 -18.877843 -1.911479 -0.476494 0.761595 8.132650 -7.125000 0.000000 0.000000 88.770377 5.635066 46.457490 -16.749282 31.745928 -4.252467 0.295903 -2.673329 3.370876 7.125000 0.000000 0.000000 
-30.927908 17.438543 1.419208 16.699462 88.959559 8.199150 -11.904510 4.599184 9.558277 -1.093528 4.968252 13.968259 -0.472468 6.587817 -11.994208 0.950500 -6.208900 -17.391600 19.095301 -11.910065 19.592799 -0.356742 -4.008424 5.926177 -0.470056 2.926215 -12.599925 -0.089700 -1.931700 5.317000 0.678892 1.412961 0.183661 -2.658142 0.286794 9.376623 5.218481 2.103845 12.749803 -0.635000 1.626200 12.923300 -93.297328 -9.709703 39.563658 9.918845 -18.742249 -1.881581 -0.450402 0.750109 8.257121 -7.125000 0.000000 0.000000 88.719058 5.534969 46.481839 -16.701486 31.679975 -4.226512 0.296037 -2.661802 3.346004 7.125000 0.000000 0.000000 
-30.934897 17.441318 1.422395 17.870657 88.975119 9.479060 -11.912713 4.627526 9.325678 -1.085132 5.004726 14.063706 -0.475844 6.589221 -11.965702 1.015700 -6.412000 -17.984600 19.044381 -11.890004 19.477977 -0.361382 -3.979406 5.844513 -0.467365 2.949099 -12.536194 -0.081700 -1.843900 5.074300 0.672745 1.412820 0.146773 -2.655839 0.286572 9.264446 5.232330 2.084751 12.779110 -0.636400 1.627700 12.916100 -93.296177 -9.642692 39.175320 9.841098 -18.629688 -1.857757 -0.458094 0.758234 8.449146 -7.125000 0.000000 0.000000 88.737029 5.411092 46.428781 -16.714343 31.685247 -4.219358 0.316605 -2.653360 3.091982 7.125000 0.000000 0.000000 
